<svg width="64" height="36" viewBox="0 0 64 36" fill="none" xmlns="http://www.w3.org/2000/svg">
<path d="M2.90909 36V31.4345H61.0909V36H2.90909ZM5.67273 16.9896L2.76364 15.343L5.67273 10.2536H0V6.88565H5.67273L2.76364 1.79626L5.67273 0.149688L8.43636 5.16424L11.2 0.149688L14.1091 1.79626L11.2 6.88565H16.8727V10.2536H11.2L14.1091 15.343L11.2 16.9896L8.43636 11.9751L5.67273 16.9896ZM29.2364 16.9896L26.3273 15.1933L29.2364 10.104H23.5636V6.73597H29.2364L26.3273 1.64657L29.2364 0L32 5.01455L34.7636 0L37.6727 1.64657L34.7636 6.73597H40.4364V10.104H34.7636L37.6727 15.1933L34.7636 16.9896L32 11.9751L29.2364 16.9896ZM52.8 16.9896L49.8909 15.1933L52.8 10.104H47.1273V6.73597H52.8L49.8909 1.64657L52.8 0L55.5636 5.01455L58.3273 0L61.2364 1.64657L58.3273 6.73597H64V10.104H58.3273L61.2364 15.1933L58.3273 16.9896L55.5636 11.9751L52.8 16.9896Z" fill="#C2C5CA"/>
</svg>
