<svg width="68" height="36" viewBox="0 0 68 36" fill="none" xmlns="http://www.w3.org/2000/svg">
<path d="M17.7391 23.1C16.3594 23.1 15.1768 22.6 14.1913 21.6C13.2058 20.6 12.713 19.4 12.713 18C12.713 16.6 13.2058 15.4 14.1913 14.4C15.1768 13.4 16.3594 12.9 17.7391 12.9C19.1188 12.9 20.3015 13.4 21.287 14.4C22.2725 15.4 22.7652 16.6 22.7652 18C22.7652 19.4 22.2725 20.6 21.287 21.6C20.3015 22.6 19.1188 23.1 17.7391 23.1ZM17.7391 36C12.8116 36 8.62319 34.25 5.17391 30.75C1.72464 27.25 0 23 0 18C0 13 1.72464 8.75 5.17391 5.25C8.62319 1.75 12.8116 0 17.7391 0C21.287 0 24.3913 0.85 27.0522 2.55C29.713 4.25 31.8072 6.825 33.3348 10.275H59.6478L68 18.75L55.6565 30.225L49.1522 25.425L42.6478 30.225L37.1043 25.725H33.3348C32.1029 28.725 30.1688 31.1875 27.5326 33.1125C24.8964 35.0375 21.6319 36 17.7391 36ZM17.7391 31.5C20.5971 31.5 23.2333 30.5375 25.6478 28.6125C28.0623 26.6875 29.6145 24.225 30.3043 21.225H38.7304L42.7217 24.6L49.2261 19.875L55.287 24.525L61.5696 18.6L57.8 14.775H30.3043C29.713 11.975 28.2348 9.5625 25.8696 7.5375C23.5043 5.5125 20.7942 4.5 17.7391 4.5C14.0435 4.5 10.9022 5.8125 8.31522 8.4375C5.72826 11.0625 4.43478 14.25 4.43478 18C4.43478 21.75 5.72826 24.9375 8.31522 27.5625C10.9022 30.1875 14.0435 31.5 17.7391 31.5Z" fill="#C2C5CA"/>
</svg>
